<svg width="430" height="120" viewBox="0 0 430 120" xmlns="http://www.w3.org/2000/svg" aria-label="Urbanización Aurich Bonilla · Gilberto · Lambayeque">
  <defs>
    <linearGradient id="g" x1="0" y1="0" x2="1" y2="1">
      <stop offset="0" stop-color="#f1c668"/><stop offset="1" stop-color="#d29a2e"/>
    </linearGradient>
    <clipPath id="c"><circle cx="52" cy="52" r="40.5"/></clipPath>
  </defs>
  <g transform="translate(0,8)">
    <circle cx="52" cy="52" r="47" fill="none" stroke="url(#g)" stroke-width="2.6"/>
    <g clip-path="url(#c)">
      <circle cx="52" cy="64" r="13" fill="url(#g)"/>
      <g stroke="url(#g)" stroke-width="2" stroke-linecap="round">
        <line x1="52" y1="44" x2="52" y2="37"/>
        <line x1="38" y1="48" x2="34" y2="43"/>
        <line x1="66" y1="48" x2="70" y2="43"/>
        <line x1="28" y1="61" x2="22" y2="60"/>
        <line x1="76" y1="61" x2="82" y2="60"/>
      </g>
      <g fill="#0a5dc2">
        <path d="M24 76 V63 h12 V76 Z"/><path d="M22 64 L30 56 L38 64 Z"/>
        <path d="M44 76 V54 h16 V76 Z"/><path d="M41 55 L52 44 L63 55 Z"/>
        <path d="M66 76 V65 h12 V76 Z"/><path d="M64 66 L72 58 L80 66 Z"/>
      </g>
      <rect x="8" y="76" width="88" height="5" fill="#0a5dc2"/>
    </g>
  </g>
  <text x="116" y="40" font-family="'Jost','Segoe UI',sans-serif" font-size="11" letter-spacing="5" fill="#5e6b78">URBANIZACIÓN</text>
  <text x="115" y="78" font-family="'Cormorant Garamond',Georgia,serif" font-weight="700" font-size="42" fill="#0e2a47">Aurich Bonilla</text>
  <text x="118" y="98" font-family="'Jost','Segoe UI',sans-serif" font-size="11.5" letter-spacing="3" fill="#d29a2e">GILBERTO · LAMBAYEQUE</text>
</svg>
