<svg width="120" height="120" viewBox="0 0 120 120" xmlns="http://www.w3.org/2000/svg" aria-label="Urbanización Aurich Bonilla">
  <defs>
    <linearGradient id="g" x1="0" y1="0" x2="1" y2="1">
      <stop offset="0" stop-color="#f1c668"/><stop offset="1" stop-color="#d29a2e"/>
    </linearGradient>
    <clipPath id="c"><circle cx="60" cy="60" r="47.5"/></clipPath>
  </defs>
  <circle cx="60" cy="60" r="55" fill="none" stroke="url(#g)" stroke-width="3"/>
  <circle cx="60" cy="60" r="48" fill="none" stroke="#0a5dc2" stroke-width="1" opacity=".25"/>
  <g clip-path="url(#c)">
    <circle cx="60" cy="74" r="15" fill="url(#g)"/>
    <g stroke="url(#g)" stroke-width="2.4" stroke-linecap="round">
      <line x1="60" y1="50" x2="60" y2="42"/>
      <line x1="44" y1="55" x2="39" y2="49"/>
      <line x1="76" y1="55" x2="81" y2="49"/>
      <line x1="33" y1="70" x2="26" y2="69"/>
      <line x1="87" y1="70" x2="94" y2="69"/>
    </g>
    <g fill="#0a5dc2">
      <path d="M28 86 V70 h15 V86 Z"/><path d="M26 71 L35.5 61 L45 71 Z"/>
      <path d="M50 86 V62 h20 V86 Z"/><path d="M47 63 L60 50 L73 63 Z"/>
      <path d="M76 86 V72 h15 V86 Z"/><path d="M74 73 L83.5 64 L93 73 Z"/>
    </g>
    <rect x="12" y="86" width="96" height="6" fill="#0a5dc2"/>
  </g>
</svg>
